HIERARCHY
ROOT root
{
	OFFSET 0.000000 0.000000 0.000000
	CHANNELS 6 Xposition Yposition Zposition Zrotation Yrotation Xrotation
	JOINT lhip
	{
		OFFSET 0.058581 -0.082280 -0.017664
		CHANNELS 3 Zrotation Yrotation Xrotation
		JOINT lknee
		{
			OFFSET 0.043451 -0.386469 0.008037
			CHANNELS 3 Zrotation Yrotation Xrotation
			JOINT lankle
			{
				OFFSET -0.014790 -0.426874 -0.037428
				CHANNELS 3 Zrotation Yrotation Xrotation
				JOINT ltoe
				{
					OFFSET 0.041054 -0.060286 0.122042
					CHANNELS 3 Zrotation Yrotation Xrotation
					End Site
					{
						OFFSET 0.000000 0.000000 0.000000
					}
				}
			}
		}
	}
	JOINT rhip
	{
		OFFSET -0.060310 -0.090513 -0.013543
		CHANNELS 3 Zrotation Yrotation Xrotation
		JOINT rknee
		{
			OFFSET -0.043257 -0.383688 -0.004843
			CHANNELS 3 Zrotation Yrotation Xrotation
			JOINT rankle
			{
				OFFSET 0.019056 -0.420046 -0.034562
				CHANNELS 3 Zrotation Yrotation Xrotation
				JOINT rtoe
				{
					OFFSET -0.034840 -0.062106 0.130323
					CHANNELS 3 Zrotation Yrotation Xrotation
					End Site
					{
						OFFSET 0.000000 0.000000 0.000000
					}
				}
			}
		}
	}
	JOINT lowerback
	{
		OFFSET 0.004439 0.124404 -0.038385
		CHANNELS 3 Zrotation Yrotation Xrotation
		JOINT upperback
		{
			OFFSET 0.004488 0.137956 0.026820
			CHANNELS 3 Zrotation Yrotation Xrotation
			JOINT chest
			{
				OFFSET -0.002265 0.056032 0.002855
				CHANNELS 3 Zrotation Yrotation Xrotation
				JOINT lowerneck
				{
					OFFSET -0.013390 0.211636 -0.033468
					CHANNELS 3 Zrotation Yrotation Xrotation
					JOINT upperneck
					{
						OFFSET 0.010113 0.088937 0.050410
						CHANNELS 3 Zrotation Yrotation Xrotation
						End Site
						{
							OFFSET 0.000000 0.000000 0.000000
						}
					}
				}
				JOINT lclavicle
				{
					OFFSET 0.071702 0.114000 -0.018898
					CHANNELS 3 Zrotation Yrotation Xrotation
					JOINT lshoulder
					{
						OFFSET 0.122921 0.045205 -0.019046
						CHANNELS 3 Zrotation Yrotation Xrotation
						JOINT lelbow
						{
							OFFSET 0.255332 -0.015649 -0.022946
							CHANNELS 3 Zrotation Yrotation Xrotation
							JOINT lwrist
							{
								OFFSET 0.265709 0.012698 -0.007375
								CHANNELS 3 Zrotation Yrotation Xrotation
								End Site
								{
									OFFSET 0.000000 0.000000 0.000000
								}
							}
						}
					}
				}
				JOINT rclavicle
				{
					OFFSET -0.082954 0.112472 -0.023707
					CHANNELS 3 Zrotation Yrotation Xrotation
					JOINT rshoulder
					{
						OFFSET -0.113228 0.046853 -0.008472
						CHANNELS 3 Zrotation Yrotation Xrotation
						JOINT relbow
						{
							OFFSET -0.260127 -0.014369 -0.031269
							CHANNELS 3 Zrotation Yrotation Xrotation
							JOINT rwrist
							{
								OFFSET -0.269108 0.006794 -0.006027
								CHANNELS 3 Zrotation Yrotation Xrotation
								End Site
								{
									OFFSET 0.000000 0.000000 0.000000
								}
							}
						}
					}
				}
			}
		}
	}
}
MOTION
Frames: 16
Frame Time: 0.033333
0.200740 0.502991 0.990639 -8.794860 10.810665 72.243288 7.000825 6.851540 12.944693 -5.189814 -11.648732 10.826520 5.549678 15.432724 -20.650928 0.000000 -0.000000 0.000000 -17.503781 -9.338062 -63.457182 1.371565 -19.765132 40.767579 14.434136 -12.920512 34.104786 0.000000 -0.000000 0.000000 0.788817 -5.391929 27.014158 6.001749 4.304434 -8.073349 5.986064 -1.131148 2.116234 1.178124 -3.009189 12.171363 3.953407 -5.271023 -2.786947 -15.740152 -4.751193 -0.526890 -14.716787 -12.337295 -13.336887 47.839325 -48.921675 -43.782768 6.553038 -6.801804 7.034877 26.421145 4.542472 -0.427577 26.244815 10.669707 0.427469 -53.730167 59.729260 -42.604181 -3.259451 13.542990 14.181740 
0.202036 0.501284 0.991187 -8.425137 10.614658 72.123327 6.552194 6.537576 13.524676 -5.351898 -12.171214 10.183799 6.401659 16.129303 -20.318274 0.000000 -0.000000 0.000000 -17.273389 -8.173756 -63.228535 1.046611 -19.744655 52.246985 13.463570 -13.157215 35.073529 0.000000 -0.000000 0.000000 0.270509 -5.381074 26.601549 6.595555 4.500969 -7.494299 5.943634 -1.114901 1.785399 1.585308 -3.297174 11.741159 3.737196 -5.804809 -2.117320 -15.486040 -5.009806 -0.844834 -13.731000 -12.132895 -13.387804 50.741501 -50.089182 -46.646271 6.585611 -6.368779 6.729333 26.767224 4.533193 -0.537115 26.569612 9.876860 1.073675 -53.619978 59.651027 -42.774636 -2.793398 13.636686 14.444167 
0.202963 0.498705 0.992046 -7.930683 10.370441 71.892238 5.921037 5.908770 14.167886 -5.432199 -12.619138 9.783205 7.080840 17.075010 -20.107811 0.000000 -0.000000 0.000000 -17.080679 -7.046926 -62.169386 -0.417098 -20.717194 65.645301 12.884880 -13.284559 35.007607 0.000000 -0.000000 0.000000 -0.340130 -5.308115 26.313490 7.221280 4.481955 -7.110748 5.854309 -0.962447 1.409293 2.237727 -3.492361 11.785040 3.422027 -6.724951 -1.671928 -15.142013 -5.249191 -1.305753 -12.940135 -12.011211 -13.453759 53.582339 -51.239754 -49.044006 5.104962 -5.862866 6.077437 27.033813 4.616062 -0.821263 27.135962 8.850307 1.773547 -53.296634 59.401157 -42.491199 -2.737948 13.668481 14.286095 
0.203455 0.495737 0.992649 -7.260765 9.978045 71.727397 5.049420 4.887987 14.767028 -5.641664 -13.094222 9.430421 7.732280 18.328500 -19.894262 0.000000 -0.000000 0.000000 -17.025079 -5.877095 -60.359543 -2.378838 -21.304754 79.813697 11.964275 -13.594565 35.164835 0.000000 -0.000000 0.000000 -1.147038 -5.126038 25.799021 7.906908 4.355540 -6.798256 5.747295 -0.892072 1.316415 2.873057 -3.606686 11.785836 3.143635 -7.613232 -1.274298 -14.872982 -5.555985 -1.760989 -11.830386 -11.859220 -13.424243 55.982142 -52.287283 -51.275976 3.873251 -5.496019 5.614896 27.425916 4.660254 -1.261193 27.424353 7.948201 2.560328 -52.943772 59.111583 -42.119724 -2.267160 13.450808 14.498669 
0.204100 0.492469 0.992677 -6.375936 9.531493 71.811814 3.959685 3.709013 15.041773 -5.749983 -13.565754 9.251815 8.558285 19.640435 -19.636951 0.000000 -0.000000 0.000000 -17.037703 -4.694406 -57.903071 -3.839976 -21.044769 93.574898 11.655865 -13.327374 34.958153 0.000000 -0.000000 0.000000 -1.760983 -4.834666 25.043697 8.506636 4.057436 -6.507741 5.534132 -0.948464 0.940339 3.469654 -3.793088 11.885067 2.638030 -8.550341 -0.632577 -14.443421 -5.918880 -1.981417 -11.087704 -11.569689 -13.289538 58.417235 -53.335549 -53.601225 3.887465 -5.414416 4.810396 27.613491 4.656173 -1.611619 27.749715 6.898990 3.307810 -52.404495 59.046824 -41.385466 -2.352334 13.389968 14.188238 
0.204842 0.489233 0.992165 -5.600836 8.991254 72.110950 2.739872 2.493917 15.100168 -5.806554 -13.868198 9.036041 9.397699 20.891408 -19.175367 0.000000 -0.000000 0.000000 -16.723243 -3.195048 -55.145558 -3.624772 -20.308343 105.585794 11.376338 -12.271012 34.542366 0.000000 -0.000000 0.000000 -2.240144 -4.419379 23.881970 9.078955 3.767916 -5.802169 5.232458 -0.985709 0.335166 3.946510 -4.019714 11.773773 2.116822 -9.610504 0.144363 -14.106093 -6.484866 -2.096921 -10.510063 -11.118393 -12.964957 61.610389 -53.710526 -56.190796 2.409226 -4.668660 4.394623 27.652587 4.569226 -1.961553 28.264196 5.984829 3.664463 -52.473278 59.214902 -40.964298 -1.214859 12.714477 13.930380 
0.205506 0.486761 0.991193 -5.036737 8.476063 72.625944 1.653914 1.455090 14.763970 -5.928521 -14.000357 8.946037 10.144091 21.967634 -18.708213 0.000000 -0.000000 0.000000 -16.407804 -1.762473 -52.461941 -3.066909 -19.884896 115.281694 11.161710 -11.068762 35.014240 0.000000 -0.000000 0.000000 -2.421781 -4.025053 22.732664 9.446634 3.521668 -5.468828 4.873177 -0.929514 0.003002 4.089029 -4.264938 11.539717 1.751767 -10.515014 0.779672 -13.731939 -6.876663 -2.665555 -10.304292 -11.108761 -12.693070 64.174759 -54.188010 -58.680522 1.207172 -4.261803 4.274836 27.532515 4.496061 -2.375288 29.160120 5.190729 4.322051 -53.088423 59.130918 -41.583702 -0.582517 12.091880 14.211751 
0.206227 0.485553 0.989779 -4.746560 7.805160 73.167057 0.570915 0.775582 14.319194 -6.030068 -14.025219 8.788616 10.721090 22.718326 -18.198891 0.000000 -0.000000 0.000000 -16.553849 -0.564551 -50.569113 -2.900668 -19.298259 121.860890 11.355411 -10.483998 36.075004 0.000000 -0.000000 0.000000 -2.691472 -3.740711 22.275410 9.509373 3.480231 -5.878623 4.618158 -0.761878 0.028953 4.145615 -4.501227 11.063652 1.597907 -11.011780 1.046818 -13.094057 -6.837448 -3.090671 -10.449996 -11.208017 -12.760329 66.591190 -54.844658 -60.658362 0.882172 -4.189315 3.930839 27.182833 4.377212 -2.847412 30.347910 4.866286 4.708089 -53.288355 59.256154 -41.549040 -0.370184 11.983547 13.782046 
0.207105 0.484690 0.988943 -4.582436 7.130321 73.767017 -0.401992 0.376272 13.971163 -6.011224 -13.993378 8.228120 11.050507 23.128821 -17.563144 0.000000 -0.000000 0.000000 -16.757743 -0.158404 -50.002648 -2.827882 -18.411013 124.060400 11.531779 -11.096231 37.246898 0.000000 -0.000000 0.000000 -2.901202 -3.616110 21.450089 9.532399 3.470534 -5.841124 4.480756 -0.675166 0.184607 4.030925 -4.671177 10.571213 1.487490 -11.340440 1.137427 -12.971137 -6.685991 -3.040581 -10.491633 -11.412148 -12.974954 69.062712 -55.024734 -62.881291 2.083772 -4.457390 3.389324 27.272732 4.393352 -2.947909 30.778137 5.041605 5.217566 -53.418217 59.155148 -41.355202 -0.133080 12.002263 13.752094 
0.208211 0.484584 0.988933 -4.610688 6.641226 74.018221 -0.820311 0.676430 14.027412 -5.979650 -14.034326 7.582453 10.935652 22.781373 -17.300537 0.000000 -0.000000 0.000000 -16.473935 -0.125779 -50.698677 -2.428603 -17.719549 121.510237 10.908475 -11.144558 35.870953 0.000000 -0.000000 0.000000 -2.917231 -3.804791 21.494702 9.327746 3.649324 -6.089826 4.512626 -0.575223 0.250488 3.822368 -4.663321 10.297502 1.418182 -11.335750 1.224884 -12.924704 -6.255955 -3.392476 -10.496459 -11.619871 -13.083520 70.584951 -55.445236 -64.224370 2.420814 -4.704698 2.543768 27.314957 4.614139 -2.798842 30.954297 5.403132 5.540774 -53.147943 59.161942 -40.815900 -0.232639 12.112022 13.662601 
0.209228 0.485090 0.989205 -4.721680 6.387636 73.961870 -0.812457 1.531450 14.286895 -5.899521 -14.287511 7.166728 10.434147 21.967461 -17.405290 0.000000 -0.000000 0.000000 -16.039214 -0.167255 -52.080171 -2.577548 -17.052678 115.547064 10.308541 -11.463681 33.580776 0.000000 -0.000000 0.000000 -2.818631 -4.060062 22.089702 9.069183 3.883778 -6.378468 4.764956 -0.579525 0.324280 3.591490 -4.752903 10.213620 1.586839 -11.324403 1.084236 -12.905315 -5.961995 -3.455057 -10.504239 -11.787726 -13.305400 71.919184 -55.468716 -65.109769 3.060840 -4.733873 2.398768 27.328935 4.904110 -2.451747 30.819551 6.030753 5.580889 -52.322355 59.397516 -39.888365 -1.244190 12.427706 13.429378 
0.209953 0.486248 0.988981 -4.876921 6.190482 73.791537 -0.882216 2.137035 14.581016 -5.679514 -14.147387 6.821330 9.793940 21.294224 -17.755126 0.000000 -0.000000 0.000000 -15.840993 -0.410652 -53.833070 -3.237817 -16.798832 107.299516 10.504056 -12.529684 30.659518 0.000000 -0.000000 0.000000 -2.753252 -4.295976 22.930244 8.756975 4.141870 -6.804941 5.078490 -0.716698 0.580112 3.440846 -4.786060 9.977764 1.806196 -11.131314 1.013404 -12.735439 -5.772368 -3.463688 -10.098311 -12.016991 -13.451777 72.468125 -55.225526 -65.546398 3.167015 -4.886492 2.560395 27.225793 5.193776 -2.336864 30.873937 6.508574 5.958245 -52.241346 59.503445 -39.955462 -1.209037 12.603125 14.152088 
0.210457 0.487704 0.988696 -5.006760 6.331779 73.488707 -0.571828 2.763039 14.733152 -5.522802 -13.951443 6.977010 9.441597 20.514621 -18.183716 0.000000 -0.000000 0.000000 -15.481037 -0.680098 -55.269321 -3.518516 -17.325012 97.082595 10.466990 -13.714908 29.693650 0.000000 -0.000000 0.000000 -2.489066 -4.566027 23.830801 8.570845 4.296121 -7.104236 5.447780 -0.721442 0.941387 3.027468 -4.787175 9.785107 2.216149 -10.726388 0.967103 -12.579067 -5.667263 -3.451132 -9.675049 -12.857415 -13.635676 72.299868 -54.924249 -65.313044 3.736387 -5.003446 2.507414 27.252399 5.336242 -1.842927 30.555637 7.148537 6.176080 -52.613493 59.496596 -40.272347 -1.496535 13.008128 14.098233 
0.210732 0.489353 0.988406 -5.111234 6.459397 73.273048 -0.210144 3.584685 14.596159 -5.428604 -13.859461 7.499888 9.039597 19.507607 -18.588981 0.000000 -0.000000 0.000000 -14.954310 -1.444211 -56.303916 -2.836216 -18.017543 84.936829 10.737869 -14.040296 30.323287 0.000000 -0.000000 0.000000 -2.108027 -4.693941 24.626090 8.256363 4.280532 -7.493722 5.801195 -0.932354 1.365580 2.451631 -4.890481 10.199552 2.931263 -10.129793 0.570935 -12.409590 -5.621110 -3.558915 -9.217904 -13.682599 -13.855867 72.151874 -54.760247 -65.829959 4.110269 -4.962164 2.163741 27.131357 5.270328 -1.961388 30.587906 7.751326 6.411265 -51.885566 59.807225 -39.814406 -1.039807 12.935437 14.443486 
0.211204 0.491525 0.987958 -5.192233 6.535789 73.165062 0.081162 4.365093 14.332823 -5.289253 -13.650910 7.913353 8.590169 18.347459 -18.936319 0.000000 -0.000000 0.000000 -14.323558 -2.434419 -56.725381 -1.136657 -18.345924 70.531863 11.814881 -13.127070 32.638840 0.000000 -0.000000 0.000000 -1.705409 -4.653193 25.442025 7.954355 4.133601 -7.982255 6.139996 -1.145457 1.741889 1.853863 -4.941688 10.366328 3.501353 -9.793545 0.613792 -12.315017 -5.533523 -3.630669 -8.988901 -14.999222 -14.166325 71.870024 -54.563544 -66.117205 4.423685 -5.399610 2.370665 27.096707 5.020656 -1.581479 30.488451 8.570709 6.477401 -51.427743 59.887019 -39.450294 -1.294042 12.945588 14.870857 
0.211772 0.493689 0.987517 -5.426167 6.391771 73.251004 0.173514 5.285021 13.930762 -5.126329 -13.241506 8.092432 8.036389 17.228011 -19.228849 0.000000 -0.000000 0.000000 -13.616267 -3.232838 -56.799370 1.078974 -17.499059 54.565946 13.854194 -11.691525 34.021957 0.000000 -0.000000 0.000000 -1.384510 -4.452818 26.167476 7.526207 3.967027 -8.623254 6.456230 -1.195645 2.050165 1.288503 -4.960764 10.490033 4.099584 -9.569668 0.983269 -12.029763 -5.420955 -3.777711 -9.423948 -16.286613 -14.107284 71.769603 -54.818415 -65.775250 6.183427 -6.013608 2.939486 26.662402 4.786297 -1.730508 31.147268 8.948005 6.378303 -50.670785 59.828128 -38.135311 -1.122830 12.920486 14.702107 
